<svg width="24" height="24" viewBox="0 0 24 24" fill="none" xmlns="http://www.w3.org/2000/svg">
<path fill-rule="evenodd" clip-rule="evenodd" d="M5.69887 7L10.0975 2.78467C11.1612 1.7653 12.8393 1.7653 13.9029 2.78467L18.3015 7H20.8472C21.4558 7 21.9232 7.53899 21.8372 8.14142L20.3682 18.4243C20.157 19.9022 18.8913 21 17.3983 21H6.60211C5.10916 21 3.8434 19.9022 3.63226 18.4243L2.16328 8.14142C2.07722 7.53899 2.54468 7 3.15323 7H5.69887ZM11.1353 3.86766C11.6188 3.4043 12.3816 3.4043 12.8651 3.86766L16.1336 7H7.86679L11.1353 3.86766ZM3.72974 8.5L5.11719 18.2121C5.22275 18.9511 5.85563 19.5 6.60211 19.5H17.3983C18.1448 19.5 18.7777 18.9511 18.8833 18.2121L20.2707 8.5H3.72974Z" fill="black"/>
<path fill-rule="evenodd" clip-rule="evenodd" d="M8.00021 11.25C8.41443 11.25 8.75021 11.5858 8.75021 12V16C8.75021 16.4142 8.41443 16.75 8.00021 16.75C7.586 16.75 7.25021 16.4142 7.25021 16V12C7.25021 11.5858 7.586 11.25 8.00021 11.25Z" fill="black"/>
<path fill-rule="evenodd" clip-rule="evenodd" d="M12.0002 11.25C12.4144 11.25 12.7502 11.5858 12.7502 12V16C12.7502 16.4142 12.4144 16.75 12.0002 16.75C11.586 16.75 11.2502 16.4142 11.2502 16V12C11.2502 11.5858 11.586 11.25 12.0002 11.25Z" fill="black"/>
<path fill-rule="evenodd" clip-rule="evenodd" d="M16.0002 11.25C16.4144 11.25 16.7502 11.5858 16.7502 12V16C16.7502 16.4142 16.4144 16.75 16.0002 16.75C15.586 16.75 15.2502 16.4142 15.2502 16V12C15.2502 11.5858 15.586 11.25 16.0002 11.25Z" fill="black"/>
</svg>
